<?xml version="1.0" encoding="UTF-8" standalone="no"?>
<!-- Created with Inkscape (http://www.inkscape.org/) -->

<svg
   version="1.1"
   id="svg1"
   width="1000.1467"
   height="348.73334"
   viewBox="0 0 1000.1467 348.73334"
   sodipodi:docname="utoof-logo.eps"
   xmlns:inkscape="http://www.inkscape.org/namespaces/inkscape"
   xmlns:sodipodi="http://sodipodi.sourceforge.net/DTD/sodipodi-0.dtd"
   xmlns="http://www.w3.org/2000/svg"
   xmlns:svg="http://www.w3.org/2000/svg">
  <defs
     id="defs1" />
  <sodipodi:namedview
     id="namedview1"
     pagecolor="#ffffff"
     bordercolor="#000000"
     borderopacity="0.25"
     inkscape:showpageshadow="2"
     inkscape:pageopacity="0.0"
     inkscape:pagecheckerboard="0"
     inkscape:deskcolor="#d1d1d1">
    <inkscape:page
       x="0"
       y="0"
       inkscape:label="1"
       id="page1"
       width="1000.1467"
       height="348.73334"
       margin="0"
       bleed="0" />
  </sodipodi:namedview>
  <g
     id="g1"
     inkscape:groupmode="layer"
     inkscape:label="1">
    <g
       id="group-R5">
      <path
         id="path2"
         d="M 486.68,737.57 C -4.80469,873.629 94.1289,1490.64 361.016,1839.89 c 21.14,0 41.882,0 63.031,0 -133.246,-310.09 -194.281,-578.65 -11.969,-707.19 190.688,-134.88 490.285,-63.68 658.632,72.78 86.17,70 330.71,348.45 284.04,461.96 -11.97,29.67 -41.09,47.07 -88.97,47.86 -30.31,0 -60.63,0 -90.95,0 -76.59,3.96 -115.29,57.35 -78.59,208.84 43.89,171.26 119.68,257.48 232.58,246.01 201.46,-21.75 219.81,-349.24 147.6,-582.6 C 1339.19,1115.69 1083.48,832.5 703.695,746.672 661.012,722.941 623.512,699.211 593.59,675.082 c 144.414,-8.301 288.828,-71.594 433.64,-164.934 142.02,-88.597 254.51,-50.628 342.28,93.34 18.35,41.922 89.36,28.473 65.82,-37.179 C 1307.27,333.738 1148.5,272.828 992.52,279.16 820.98,286.281 699.707,346.012 560.477,437.371 438.008,516.871 316.73,588.461 210.219,472.57 220.988,433.809 224.578,393.07 217,359.051 192.664,249.488 39.0742,251.469 4.76953,347.191 -13.582,399.789 22.7188,460.309 84.5547,513.309 191.867,600.32 316.73,679.43 486.68,737.57 Z m 6607.88,624.13 188.29,176.41 167.55,-171.26 -199.06,-160.98 z M 5517.19,254.641 c -1.61,188.66 -2.8,375.347 59.04,395.918 9.97,-255.508 122.47,-355.579 293.21,-368.629 290.82,-24.52 553.71,-7.121 816.61,10.289 279.25,37.972 523.79,123.402 712.09,285.562 -17.56,23.731 -35.1,47.457 -52.26,71.59 -43.09,-11.871 -85.77,-9.5 -128.46,0 -166.75,93.34 51.07,621.359 227.79,347.66 C 7576.46,746.27 7444.41,501.449 7375.8,435 6982.46,8.23047 6498.15,33.1406 6025.02,0.320313 5693.11,-6.01172 5527.96,81.0117 5517.19,254.641 Z M 1116.59,2545.5 c 18.75,-13.05 37.9,-26.1 56.65,-39.15 15.95,-9.49 34.3,-10.29 47.07,0 39.09,36.38 78.59,72.77 117.68,109.16 39.5,0 78.59,0 118.09,0 22.74,-19.78 45.87,-39.55 69.01,-59.33 0,-32.04 0,-64.07 0,-96.51 -58.24,-58.93 -116.49,-118.26 -174.33,-177.58 -17.15,-13.06 -39.5,-10.68 -53.46,1.58 -16.75,12.65 -33.51,24.92 -50.26,37.57 -13.56,11.07 -31.12,11.87 -43.89,0 -27.92,-32.43 -55.45,-64.47 -83.37,-96.51 -44.68,0 -88.96,0 -133.643,0 -35.903,17.41 -72.207,35.21 -108.11,53 0,27.29 0,54.98 0,82.27 51.86,61.7 103.719,123.8 155.583,185.5 27.53,0 55.45,0 82.98,0 v 0"
         style="fill:#fff200;fill-opacity:1;fill-rule:evenodd;stroke:none"
         transform="matrix(0.13333333,0,0,-0.13333333,0,348.73333)" />
      <path
         id="path3"
         d="m 4217.47,1733.89 c 177.92,2.77 283.24,-193.8 298,-433.09 14.36,-239.7 -54.65,-431.12 -244.94,-433.499 -190.69,-2.77 -283.64,193.799 -298,433.499 -14.77,239.29 67.02,430.72 244.94,433.09 z m 1259.02,0 c 177.92,2.77 283.65,-193.8 298,-433.09 14.77,-239.7 -54.65,-431.12 -244.94,-433.499 -190.68,-2.77 -283.24,193.799 -298,433.499 -14.36,239.29 67.42,430.72 244.94,433.09 z m 48.27,85.83 c 300,0 534.97,-232.96 524.99,-520.51 -9.97,-287.15 -261.29,-520.108 -561.28,-520.108 -300,0 -534.98,232.958 -525,520.108 9.98,287.55 261.3,520.51 561.29,520.51 z M 3558.04,1786.1 h -288.03 v 306.13 c -19.15,0 -38.3,0 -57.84,0 -59.44,-161.37 -145.21,-288.34 -264.1,-369.81 v -27.29 -0.4 -1.18 -0.79 -1.19 -0.79 -1.19 -0.79 -1.18 -1.19 -0.79 -1.19 -0.79 -1.18 -0.8 -1.18 -0.79 -1.19 -0.79 -1.19 -0.79 -1.18 -0.8 -1.19 -0.78 -1.19 -0.8 -1.18 -0.79 -1.19 -0.79 -1.19 -0.79 -1.18 -0.8 -1.18 -0.79 -1.19 h 70.62 c 0,-203.3 0,-406.59 0,-609.89 -2.4,-111.94 27.52,-202.112 128.85,-245.62 75,-32.039 150.79,-32.039 227.79,-9.89 121.28,34.012 191.89,115.89 205.85,251.55 h -47.07 c -12.77,-59.718 -66.23,-104.808 -130.85,-104.808 -73.41,0 -133.25,58.93 -133.25,132.108 v 0.39 586.16 h 288.03 z m 3065.38,62.1 v -62.1 h 191.48 v -127.36 h -191.48 v -628.49 -90.168 c 3.19,-34.023 17.15,-51.422 65.43,-52.211 h 88.95 v -70.012 h -154.38 -83.77 -39.5 -15.56 -39.49 -83.78 -154.39 v 70.012 h 88.97 c 48.27,0.789 62.23,18.188 65.42,52.211 v 90.168 628.49 h -164.76 v 127.36 h 164.76 v 62.1 c 19.95,295.85 384.97,512.6 647.47,351.22 79.78,-60.51 82.98,-191.83 -39.49,-220.7 -76.21,-16.61 -125.28,41.53 -169.96,111.54 -54.64,101.25 -181.91,23.33 -175.92,-101.26 0,-46.66 0,-93.73 0,-140.8 z m -4364.7,-64.87 h 421.67 v -11.87 c 0,-253.92 0,-507.85 0,-761.37 -3.19,-73.57 40.69,-94.141 133.25,-58.539 0,-22.942 -0.4,-46.281 -0.4,-69.219 -100.53,-36.383 -200.66,-72.773 -301.2,-109.172 -29.52,0 -59.43,0 -88.96,0 v 147.141 c -52.66,-58.93 -114.89,-100.071 -187.89,-124.199 -105.72,-34.403 -214.62,-31.243 -312.36,25.328 -104.93,60.5 -142.03,168.879 -132.85,309.29 v 495.59 c -0.8,52.21 -24.33,80.69 -76.19,79.1 h -22.35 v 77.92 h 98.94 256.51 v -11.87 -640.74 c 10.77,-255.509 246.94,-221.49 376.19,-96.11 l 0.4,591.7 c -0.8,52.21 -24.73,80.69 -76.19,79.1 h -88.57 z m 2007.02,36.39 c 300,0 534.96,-232.96 524.99,-520.51 -9.97,-287.15 -261.3,-520.108 -561.29,-520.108 -300,0 -534.97,232.958 -524.99,520.108 9.97,287.55 261.29,520.51 561.29,520.51 v 0"
         style="fill:#231f20;fill-opacity:1;fill-rule:evenodd;stroke:none"
         transform="matrix(0.13333333,0,0,-0.13333333,0,348.73333)" />
    </g>
  </g>
</svg>
